<?xml version="1.0" encoding="UTF-8" standalone="no" ?>
<!DOCTYPE svg PUBLIC "-//W3C//DTD SVG 1.1//EN" "http://www.w3.org/Graphics/SVG/1.1/DTD/svg11.dtd">
<svg xmlns="http://www.w3.org/2000/svg" xmlns:xlink="http://www.w3.org/1999/xlink" version="1.1" width="1080" height="1080" viewBox="0 0 1080 1080" xml:space="preserve">
<desc>Created with Fabric.js 5.2.4</desc>
<defs>
</defs>
<g transform="matrix(1 0 0 1 540 540)" id="23299257-25f3-4e9b-b730-08f2a9226b6c"  >
<rect style="stroke: none; stroke-width: 1; stroke-dasharray: none; stroke-linecap: butt; stroke-dashoffset: 0; stroke-linejoin: miter; stroke-miterlimit: 4; fill: rgb(255,255,255); fill-rule: nonzero; opacity: 1; visibility: hidden;" vector-effect="non-scaling-stroke"  x="-540" y="-540" rx="0" ry="0" width="1080" height="1080" />
</g>
<g transform="matrix(1 0 0 1 540 540)" id="acef645a-9600-4554-9c37-18159d3ac25d"  >
</g>
<g transform="matrix(NaN NaN NaN NaN 0 0)"  >
<g style=""   >
</g>
</g>
<g transform="matrix(29.16 0 0 29.16 540 540)"  >
<g style="opacity: 1;" vector-effect="non-scaling-stroke"   >
		<g transform="matrix(1 0 0 1 -7.72 0)"  >
<path style="stroke: none; stroke-width: 1; stroke-dasharray: none; stroke-linecap: butt; stroke-dashoffset: 0; stroke-linejoin: miter; stroke-miterlimit: 4; fill: rgb(255,59,126); fill-rule: nonzero; opacity: 1;" vector-effect="non-scaling-stroke"  transform=" translate(-7.72, -17.5)" d="M 0 12.4614 C 0 9.14772 2.68629 6.46143 6 6.46143 L 15.4359 6.46143 L 15.4359 28.5383 L 5.99999 28.5383 C 2.68629 28.5383 0 25.8521 0 22.5383 L 0 12.4614 Z" stroke-linecap="round" />
</g>
		<g transform="matrix(1 0 0 1 7.72 0)"  >
<path style="stroke: none; stroke-width: 1; stroke-dasharray: none; stroke-linecap: butt; stroke-dashoffset: 0; stroke-linejoin: miter; stroke-miterlimit: 4; fill: rgb(255,204,153); fill-rule: nonzero; opacity: 1;" vector-effect="non-scaling-stroke"  transform=" translate(-23.15, -17.5)" d="M 15.4359 6.46143 L 24.8718 6.46143 C 28.1855 6.46143 30.8718 9.14772 30.8718 12.4614 L 30.8718 22.5383 C 30.8718 25.8521 28.1855 28.5383 24.8718 28.5383 L 15.4359 28.5383 L 15.4359 6.46143 Z" stroke-linecap="round" />
</g>
		<g transform="matrix(1 0 0 1 0 0)"  >
<path style="stroke: none; stroke-width: 1; stroke-dasharray: none; stroke-linecap: butt; stroke-dashoffset: 0; stroke-linejoin: miter; stroke-miterlimit: 4; fill: rgb(255,255,255); fill-rule: nonzero; opacity: 1;" vector-effect="non-scaling-stroke"  transform=" translate(-15.44, -17.5)" d="M 6.64102 6.46143 L 18.2308 6.46143 C 21.5445 6.46143 24.2308 9.14772 24.2308 12.4614 L 24.2308 28.5383 L 12.641 28.5383 C 9.32731 28.5383 6.64102 25.8521 6.64102 22.5383 L 6.64102 6.46143 Z" stroke-linecap="round" />
</g>
		<g transform="matrix(1 0 0 1 -3.14 -14.27)"  >
<path style="stroke: none; stroke-width: 1; stroke-dasharray: none; stroke-linecap: butt; stroke-dashoffset: 0; stroke-linejoin: miter; stroke-miterlimit: 4; fill: rgb(255,204,153); fill-rule: nonzero; opacity: 1;" vector-effect="non-scaling-stroke"  transform=" translate(-12.29, -3.23)" d="M 17.9487 0 L 17.9487 6.46154 L 6.64102 6.46154 L 17.9487 0 Z" stroke-linecap="round" />
</g>
		<g transform="matrix(1 0 0 1 3.23 14.27)"  >
<path style="stroke: none; stroke-width: 1; stroke-dasharray: none; stroke-linecap: butt; stroke-dashoffset: 0; stroke-linejoin: miter; stroke-miterlimit: 4; fill: rgb(255,59,126); fill-rule: nonzero; opacity: 1;" vector-effect="non-scaling-stroke"  transform=" translate(-18.67, -31.77)" d="M 13.1026 28.5386 L 24.2308 28.5386 L 13.1026 35.0001 L 13.1026 28.5386 Z" stroke-linecap="round" />
</g>
		<g transform="matrix(1 0 0 1 -4.4 0)"  >
<ellipse style="stroke: none; stroke-width: 1; stroke-dasharray: none; stroke-linecap: butt; stroke-dashoffset: 0; stroke-linejoin: miter; stroke-miterlimit: 4; fill: rgb(4,30,73); fill-rule: nonzero; opacity: 1;" vector-effect="non-scaling-stroke"  cx="0" cy="0" rx="1.34615" ry="1.34615" />
</g>
		<g transform="matrix(1 0 0 1 -0.09 0)"  >
<ellipse style="stroke: none; stroke-width: 1; stroke-dasharray: none; stroke-linecap: butt; stroke-dashoffset: 0; stroke-linejoin: miter; stroke-miterlimit: 4; fill: rgb(4,30,73); fill-rule: nonzero; opacity: 1;" vector-effect="non-scaling-stroke"  cx="0" cy="0" rx="1.34615" ry="1.34615" />
</g>
		<g transform="matrix(1 0 0 1 4.22 0)"  >
<ellipse style="stroke: none; stroke-width: 1; stroke-dasharray: none; stroke-linecap: butt; stroke-dashoffset: 0; stroke-linejoin: miter; stroke-miterlimit: 4; fill: rgb(4,30,73); fill-rule: nonzero; opacity: 1;" vector-effect="non-scaling-stroke"  cx="0" cy="0" rx="1.34615" ry="1.34615" />
</g>
</g>
</g>
</svg>